<svg width="40" height="40" viewBox="0 0 40 40" fill="none" xmlns="http://www.w3.org/2000/svg">
<path d="M30 5.0013H24.7C24 3.06797 22.1666 1.66797 20 1.66797C17.8333 1.66797 16 3.06797 15.3 5.0013H9.99996C8.16663 5.0013 6.66663 6.5013 6.66663 8.33464V33.3346C6.66663 35.168 8.16663 36.668 9.99996 36.668H20.1833C19.1972 35.7109 18.3951 34.5811 17.8166 33.3346H9.99996V8.33464H13.3333V10.0013C13.3333 11.8346 14.8333 13.3346 16.6666 13.3346H23.3333C25.1666 13.3346 26.6666 11.8346 26.6666 10.0013V8.33464H30V16.8013C31.1833 16.968 32.3 17.318 33.3333 17.8013V8.33464C33.3333 6.5013 31.8333 5.0013 30 5.0013ZM20 8.33464C19.0833 8.33464 18.3333 7.58464 18.3333 6.66797C18.3333 5.7513 19.0833 5.0013 20 5.0013C20.9166 5.0013 21.6666 5.7513 21.6666 6.66797C21.6666 7.58464 20.9166 8.33464 20 8.33464ZM28.3333 20.0013C23.7333 20.0013 20 23.7346 20 28.3346C20 32.9346 23.7333 36.668 28.3333 36.668C32.9333 36.668 36.6666 32.9346 36.6666 28.3346C36.6666 23.7346 32.9333 20.0013 28.3333 20.0013ZM30.4833 31.668L27.7333 28.918C27.5778 28.7631 27.4882 28.5541 27.4833 28.3346V24.1846C27.4833 23.718 27.85 23.3513 28.3166 23.3513C28.7833 23.3513 29.15 23.718 29.15 24.1846V28.0013L31.65 30.5013C31.7278 30.5776 31.7898 30.6686 31.8323 30.769C31.8748 30.8695 31.897 30.9773 31.8975 31.0864C31.8981 31.1954 31.877 31.3035 31.8355 31.4043C31.794 31.5052 31.733 31.5968 31.6559 31.6739C31.5788 31.751 31.4872 31.812 31.3863 31.8535C31.2855 31.895 31.1774 31.9161 31.0683 31.9155C30.9593 31.915 30.8515 31.8928 30.751 31.8503C30.6506 31.8078 30.5596 31.7458 30.4833 31.668Z" fill="black"/>
</svg>
