<svg width="20" height="20" viewBox="0 0 20 20" fill="none" xmlns="http://www.w3.org/2000/svg">
<path d="M9.99992 18.3346C9.54159 18.3346 9.14936 18.1716 8.82325 17.8455C8.49714 17.5194 8.33381 17.1269 8.33325 16.668H11.6666C11.6666 17.1263 11.5035 17.5188 11.1774 17.8455C10.8513 18.1721 10.4588 18.3352 9.99992 18.3346ZM3.33325 15.8346V14.168H4.99992V8.33464C4.99992 7.18186 5.34714 6.15769 6.04159 5.26214C6.73603 4.36658 7.63881 3.77964 8.74992 3.5013V2.91797C8.74992 2.57075 8.87159 2.27575 9.11492 2.03297C9.35825 1.79019 9.65325 1.66852 9.99992 1.66797C10.3471 1.66797 10.6424 1.78964 10.8858 2.03297C11.1291 2.2763 11.2505 2.5713 11.2499 2.91797V3.1888C11.0971 3.49436 10.986 3.80686 10.9166 4.1263C10.8471 4.44575 10.8194 4.77214 10.8333 5.10547C10.6944 5.07769 10.5588 5.05325 10.4266 5.03214C10.2944 5.01102 10.1521 5.00075 9.99992 5.0013C9.08325 5.0013 8.29853 5.32769 7.64575 5.98047C6.99297 6.63325 6.66659 7.41797 6.66659 8.33464V14.168H13.3333V8.8138C13.5833 8.92491 13.8508 9.01186 14.1358 9.07464C14.4208 9.13741 14.7088 9.16852 14.9999 9.16797V14.168H16.6666V15.8346H3.33325ZM14.9999 7.5013C14.3055 7.5013 13.7152 7.25825 13.2291 6.77214C12.743 6.28602 12.4999 5.69575 12.4999 5.0013C12.4999 4.30686 12.743 3.71658 13.2291 3.23047C13.7152 2.74436 14.3055 2.5013 14.9999 2.5013C15.6944 2.5013 16.2846 2.74436 16.7708 3.23047C17.2569 3.71658 17.4999 4.30686 17.4999 5.0013C17.4999 5.69575 17.2569 6.28602 16.7708 6.77214C16.2846 7.25825 15.6944 7.5013 14.9999 7.5013Z" fill="#222222"/>
</svg>
