<svg width="20" height="20" viewBox="0 0 20 20" fill="none" xmlns="http://www.w3.org/2000/svg">
<path d="M18.3333 10.4167L17.6391 12.5M17.6391 12.5L16.6666 15.4167H12.9166L12.0833 12.5H17.6391ZM13.75 17.0917L13.7583 17.0825M16.25 17.0917L16.2583 17.0825M7.49996 9.16667C8.38401 9.16667 9.23186 8.81548 9.85698 8.19036C10.4821 7.56523 10.8333 6.71739 10.8333 5.83333C10.8333 4.94928 10.4821 4.10143 9.85698 3.47631C9.23186 2.85119 8.38401 2.5 7.49996 2.5C6.6159 2.5 5.76806 2.85119 5.14294 3.47631C4.51782 4.10143 4.16663 4.94928 4.16663 5.83333C4.16663 6.71739 4.51782 7.56523 5.14294 8.19036C5.76806 8.81548 6.6159 9.16667 7.49996 9.16667Z" stroke="#808494" stroke-width="1.25" stroke-linecap="round" stroke-linejoin="round"/>
<path d="M1.66663 15.0012C1.66664 13.9063 1.97482 12.8335 2.55591 11.9055C3.13699 10.9775 3.96753 10.2318 4.95253 9.7536C5.93753 9.27545 7.03722 9.08417 8.12582 9.20164C9.21442 9.31912 10.248 9.7406 11.1083 10.4179" stroke="#808494" stroke-width="1.25" stroke-linecap="round" stroke-linejoin="round"/>
</svg>
