<svg width="20" height="20" viewBox="0 0 20 20" fill="none" xmlns="http://www.w3.org/2000/svg">
<path d="M14.1666 15.0013C14.6087 15.0013 15.0326 15.1769 15.3452 15.4895C15.6577 15.802 15.8333 16.2259 15.8333 16.668C15.8333 17.11 15.6577 17.5339 15.3452 17.8465C15.0326 18.159 14.6087 18.3346 14.1666 18.3346C13.7246 18.3346 13.3007 18.159 12.9881 17.8465C12.6756 17.5339 12.5 17.11 12.5 16.668C12.5 15.743 13.2416 15.0013 14.1666 15.0013ZM0.833313 1.66797H3.55831L4.34165 3.33464H16.6666C16.8877 3.33464 17.0996 3.42243 17.2559 3.57871C17.4122 3.73499 17.5 3.94695 17.5 4.16797C17.5 4.30964 17.4583 4.4513 17.4 4.58464L14.4166 9.9763C14.1333 10.4846 13.5833 10.8346 12.9583 10.8346H6.74998L5.99998 12.193L5.97498 12.293C5.97498 12.3482 5.99693 12.4012 6.036 12.4403C6.07507 12.4794 6.12806 12.5013 6.18331 12.5013H15.8333V14.168H5.83331C5.39129 14.168 4.96736 13.9924 4.6548 13.6798C4.34224 13.3673 4.16665 12.9433 4.16665 12.5013C4.16665 12.2096 4.24165 11.9346 4.36665 11.7013L5.49998 9.65964L2.49998 3.33464H0.833313V1.66797ZM5.83331 15.0013C6.27534 15.0013 6.69926 15.1769 7.01182 15.4895C7.32438 15.802 7.49998 16.2259 7.49998 16.668C7.49998 17.11 7.32438 17.5339 7.01182 17.8465C6.69926 18.159 6.27534 18.3346 5.83331 18.3346C5.39129 18.3346 4.96736 18.159 4.6548 17.8465C4.34224 17.5339 4.16665 17.11 4.16665 16.668C4.16665 15.743 4.90831 15.0013 5.83331 15.0013ZM13.3333 9.16797L15.65 5.0013H5.11665L7.08331 9.16797H13.3333Z" fill="#808494"/>
</svg>
