<svg width="20" height="20" viewBox="0 0 20 20" fill="none" xmlns="http://www.w3.org/2000/svg">
<path d="M10 1.66602C14.6025 1.66602 18.3333 5.39685 18.3333 9.99935C18.3333 14.6018 14.6025 18.3327 10 18.3327C5.3975 18.3327 1.66667 14.6018 1.66667 9.99935C1.66667 5.39685 5.3975 1.66602 10 1.66602ZM10 3.33268C8.23189 3.33268 6.5362 4.03506 5.28595 5.2853C4.03571 6.53555 3.33333 8.23124 3.33333 9.99935C3.33333 11.7675 4.03571 13.4632 5.28595 14.7134C6.5362 15.9636 8.23189 16.666 10 16.666C11.7681 16.666 13.4638 15.9636 14.714 14.7134C15.9643 13.4632 16.6667 11.7675 16.6667 9.99935C16.6667 8.23124 15.9643 6.53555 14.714 5.2853C13.4638 4.03506 11.7681 3.33268 10 3.33268ZM10 4.99935C10.2041 4.99938 10.4011 5.07431 10.5536 5.20994C10.7062 5.34558 10.8036 5.53247 10.8275 5.73518L10.8333 5.83268V9.65435L13.0892 11.9102C13.2386 12.0601 13.3254 12.2614 13.3319 12.473C13.3383 12.6846 13.264 12.8908 13.124 13.0496C12.9839 13.2084 12.7887 13.3079 12.5779 13.328C12.3672 13.3481 12.1567 13.2872 11.9892 13.1577L11.9108 13.0885L9.41083 10.5885C9.28132 10.4589 9.19813 10.2902 9.17417 10.1085L9.16667 9.99935V5.83268C9.16667 5.61167 9.25446 5.39971 9.41074 5.24343C9.56702 5.08715 9.77899 4.99935 10 4.99935Z" fill="#808494"/>
</svg>
