<svg width="40" height="39" viewBox="0 0 40 39" fill="none" xmlns="http://www.w3.org/2000/svg">
<path d="M26.6667 25.1654C26.6667 23.3237 21.4434 21.832 15.0001 21.832M26.6667 25.1654C26.6667 27.007 21.4434 28.4987 15.0001 28.4987C8.55675 28.4987 3.33341 27.007 3.33341 25.1654M26.6667 25.1654V33.3937C26.6667 35.292 21.4434 36.832 15.0001 36.832C8.55675 36.832 3.33341 35.2937 3.33341 33.3937V25.1654M26.6667 25.1654C33.0401 25.1654 38.3334 23.5204 38.3334 21.832V5.16536M15.0001 21.832C8.55675 21.832 3.33341 23.3237 3.33341 25.1654M15.0001 21.832C7.63675 21.832 1.66675 20.187 1.66675 18.4987V10.1654M15.0001 6.83203C7.63675 6.83203 1.66675 8.3237 1.66675 10.1654M1.66675 10.1654C1.66675 12.007 7.63675 13.4987 15.0001 13.4987C15.0001 15.187 20.4217 16.832 26.7951 16.832C33.1667 16.832 38.3334 15.187 38.3334 13.4987M38.3334 5.16536C38.3334 3.3237 33.1667 1.83203 26.7951 1.83203C20.4217 1.83203 15.2567 3.3237 15.2567 5.16536M38.3334 5.16536C38.3334 7.00703 33.1667 8.4987 26.7951 8.4987C20.4234 8.4987 15.2567 7.00703 15.2567 5.16536M15.2567 5.16536V22.1087" stroke="black" stroke-width="3.33333"/>
</svg>
