<svg width="20" height="20" viewBox="0 0 20 20" fill="none" xmlns="http://www.w3.org/2000/svg">
<path d="M8.39119 13.3339L2.95786 7.90052C2.71619 7.65885 2.71619 7.25885 2.95786 7.01719C3.19953 6.77552 3.59953 6.77552 3.84119 7.01719L9.27453 12.4505C9.67453 12.8505 10.3245 12.8505 10.7245 12.4505L16.1579 7.01719C16.3995 6.77552 16.7995 6.77552 17.0412 7.01719C17.2829 7.25885 17.2829 7.65885 17.0412 7.90052L11.6079 13.3339C11.1662 13.7755 10.5829 14.0005 9.99953 14.0005C9.41619 14.0005 8.83286 13.7755 8.39119 13.3339Z" fill="#00BF63"/>
<path opacity="0.01" fill-rule="evenodd" clip-rule="evenodd" d="M20 0V20H0V0H20Z" fill="#00BF63"/>
</svg>
