<svg width="14" height="16" viewBox="0 0 14 16" fill="none" xmlns="http://www.w3.org/2000/svg">
<path d="M5.75 2.58464C5.75 2.47413 5.7939 2.36815 5.87204 2.29001C5.95018 2.21187 6.05616 2.16797 6.16667 2.16797H7.83333C7.94384 2.16797 8.04982 2.21187 8.12796 2.29001C8.2061 2.36815 8.25 2.47413 8.25 2.58464C8.25 2.69514 8.2061 2.80112 8.12796 2.87926C8.04982 2.9574 7.94384 3.0013 7.83333 3.0013H6.16667C6.05616 3.0013 5.95018 2.9574 5.87204 2.87926C5.7939 2.80112 5.75 2.69514 5.75 2.58464Z" fill="#808494"/>
<path fill-rule="evenodd" clip-rule="evenodd" d="M10.9017 5.71667C10.7504 5.83542 10.5542 5.93042 10.3175 6.0075C10.3628 6.4704 10.3107 6.93764 10.1646 7.3792C10.0185 7.82076 9.78156 8.22685 9.4691 8.57136C9.15664 8.91588 8.77554 9.19119 8.3503 9.3796C7.92507 9.56801 7.46511 9.66534 7.00001 9.66534C6.5349 9.66534 6.07495 9.56801 5.64971 9.3796C5.22448 9.19119 4.84338 8.91588 4.53092 8.57136C4.21846 8.22685 3.98155 7.82076 3.83544 7.3792C3.68932 6.93764 3.63723 6.4704 3.68251 6.0075C3.44584 5.93042 3.24959 5.83542 3.09876 5.71667C2.90293 5.5625 2.77167 5.35667 2.75626 5.10917C2.74167 4.87958 2.83251 4.68458 2.92334 4.54708C3.01301 4.41685 3.11949 4.29902 3.24001 4.19667C3.29834 4.14542 3.35584 4.1 3.40917 4.06042C3.39334 3.975 3.37584 3.87167 3.35834 3.75208C3.28453 3.22686 3.24832 2.69704 3.25001 2.16667C3.25001 2.03583 3.30584 1.93833 3.33167 1.89708C3.36417 1.845 3.40251 1.80042 3.43751 1.76458C3.50709 1.69167 3.59709 1.6175 3.69584 1.54625C3.89584 1.40125 4.17084 1.23833 4.49751 1.08583C5.14876 0.781667 6.04334 0.5 7.00001 0.5C7.95709 0.5 8.85126 0.782083 9.50251 1.08583C9.78334 1.21428 10.0517 1.36841 10.3042 1.54625C10.4029 1.6175 10.4929 1.69208 10.5625 1.76458C10.5975 1.80042 10.6358 1.845 10.6683 1.89708C10.6942 1.93833 10.75 2.03583 10.75 2.16667C10.75 2.83417 10.6958 3.375 10.6417 3.75208C10.6242 3.87167 10.6067 3.975 10.5908 4.06042C10.6442 4.1 10.7021 4.14542 10.7604 4.19667C10.8646 4.28792 10.9838 4.40667 11.0767 4.54708C11.1679 4.68458 11.2583 4.87958 11.2442 5.10958C11.2288 5.35667 11.0975 5.5625 10.9017 5.71667ZM4.08418 2.29917C4.09043 2.86083 4.13709 3.315 4.18334 3.6325C4.19417 3.7075 4.20501 3.77417 4.21501 3.83333H9.78501C9.79542 3.77417 9.80584 3.70708 9.81668 3.6325C9.86251 3.315 9.90959 2.86083 9.91584 2.29917C9.88341 2.27175 9.84991 2.24562 9.81542 2.22083C9.66501 2.11208 9.43668 1.975 9.15001 1.84125C8.57376 1.57208 7.80167 1.33333 7.00001 1.33333C6.19834 1.33333 5.42626 1.57208 4.85001 1.84125C4.56334 1.975 4.33501 2.11208 4.18501 2.22042C4.15036 2.24546 4.11673 2.27187 4.08418 2.29958M3.99501 4.66667L3.99376 4.6675C3.92184 4.71542 3.85296 4.76774 3.78751 4.82417C3.71334 4.88917 3.65417 4.9525 3.61834 5.0075C3.60981 5.01987 3.60216 5.03282 3.59543 5.04625C3.60133 5.05163 3.60744 5.05678 3.61376 5.06167C3.67626 5.11083 3.81042 5.18292 4.07209 5.25417C4.12376 5.26833 4.17917 5.28167 4.23834 5.295L4.24209 5.29583C4.45126 5.34208 4.70876 5.38333 5.02251 5.41583C5.46709 5.46208 6.02667 5.4925 6.72584 5.49917L7.00001 5.5C8.34459 5.5 9.21418 5.41625 9.75834 5.29583L9.76167 5.295C9.82126 5.28167 9.87667 5.26833 9.92834 5.25417C10.1896 5.18333 10.3242 5.11083 10.3863 5.06167C10.3926 5.05678 10.3987 5.05163 10.4046 5.04625C10.398 5.03283 10.3905 5.01989 10.3821 5.0075C10.3336 4.9394 10.2766 4.87778 10.2125 4.82417C10.1472 4.76775 10.0785 4.71542 10.0067 4.6675L10.005 4.66667H3.99501ZM6.88667 6.33333C7.98751 6.33333 8.84084 6.275 9.49501 6.17333C9.51651 6.51305 9.46841 6.85358 9.35366 7.17405C9.23891 7.49452 9.05992 7.78818 8.82767 8.03703C8.59542 8.28588 8.31479 8.48468 8.00299 8.62125C7.69119 8.75781 7.35479 8.82926 7.0144 8.83122C6.67401 8.83318 6.33681 8.76561 6.02346 8.63265C5.7101 8.49968 5.42721 8.30413 5.1921 8.05797C4.957 7.81181 4.77464 7.52023 4.6562 7.2011C4.53777 6.88197 4.48575 6.54202 4.50334 6.20208C5.11292 6.28625 5.89418 6.33333 6.88667 6.33333ZM3.69917 14.1987C3.67746 14.3538 3.6666 14.5101 3.66667 14.6667V15.0833C3.66672 15.1749 3.63658 15.264 3.58092 15.3367C3.52526 15.4095 3.44719 15.4619 3.35876 15.4858C3.27034 15.5097 3.17651 15.5038 3.09177 15.469C3.00704 15.4342 2.93613 15.3725 2.89001 15.2933C2.60919 15.4457 2.28058 15.4843 1.97209 15.4012L1.16709 15.1854C0.846991 15.0995 0.574117 14.89 0.40847 14.6029C0.242823 14.3158 0.197965 13.9747 0.283758 13.6546L0.607091 12.4471C0.692925 12.1269 0.902421 11.8539 1.1895 11.6882C1.47658 11.5225 1.81773 11.4776 2.13793 11.5633L2.94292 11.7787C3.22292 11.8538 3.45542 12.0183 3.61709 12.2333C4.00281 11.6964 4.51089 11.2592 5.09926 10.9577C5.68762 10.6563 6.33934 10.4994 7.00042 10.5C7.66116 10.4996 8.31249 10.6565 8.90054 10.9577C9.48859 11.259 9.99645 11.696 10.3821 12.2325C10.5496 12.0104 10.7866 11.8508 11.0554 11.7792L11.8604 11.5638C12.1806 11.478 12.5217 11.5228 12.8087 11.6885C13.0958 11.8541 13.3053 12.127 13.3913 12.4471L13.715 13.655C13.7575 13.8136 13.7683 13.979 13.7468 14.1417C13.7254 14.3045 13.6721 14.4614 13.59 14.6035C13.5079 14.7457 13.3986 14.8703 13.2683 14.9702C13.1381 15.0701 12.9894 15.1434 12.8308 15.1858L12.0263 15.4012C11.7183 15.4843 11.3902 15.4462 11.1096 15.2946C11.0633 15.3736 10.9923 15.4352 10.9075 15.4698C10.8228 15.5044 10.729 15.5102 10.6406 15.4861C10.5522 15.4621 10.4743 15.4096 10.4187 15.3368C10.3632 15.264 10.3332 15.1749 10.3333 15.0833V14.6667C10.3334 14.5101 10.3226 14.3538 10.3008 14.1987L8.13251 14.78C8.03186 14.9954 7.87184 15.1777 7.67125 15.3054C7.47065 15.4331 7.2378 15.5009 7.00001 15.5009C6.76222 15.5009 6.52936 15.4331 6.32877 15.3054C6.12817 15.1777 5.96816 14.9954 5.86751 14.78L3.69917 14.1987ZM5.80001 13.8988C5.85593 13.7088 5.95608 13.5348 6.09224 13.391C6.2284 13.2473 6.3967 13.1378 6.58334 13.0717V11.3592C5.9989 11.433 5.44444 11.6603 4.97629 12.0179C4.50814 12.3755 4.14298 12.8506 3.91793 13.395L5.80001 13.8988ZM10.0821 13.3946C9.85698 12.8503 9.4918 12.3752 9.02365 12.0177C8.5555 11.6602 8.00107 11.433 7.41667 11.3592V13.0712C7.79334 13.2046 8.08751 13.5129 8.20001 13.8992L10.0821 13.3946ZM10.9767 13.0946C10.9625 13.0417 10.9589 12.9866 10.966 12.9323C10.9731 12.8781 10.9909 12.8258 11.0182 12.7784C11.0456 12.731 11.082 12.6894 11.1254 12.6561C11.1688 12.6228 11.2184 12.5983 11.2713 12.5842L12.0763 12.3683C12.183 12.3398 12.2966 12.3548 12.3922 12.4101C12.4879 12.4653 12.5576 12.5563 12.5863 12.6629L12.91 13.8704C12.9242 13.9233 12.9278 13.9784 12.9207 14.0327C12.9136 14.0869 12.8958 14.1392 12.8684 14.1866C12.8411 14.234 12.8047 14.2756 12.7613 14.3089C12.7178 14.3422 12.6683 14.3667 12.6154 14.3808L11.8104 14.5967C11.7575 14.6108 11.7024 14.6144 11.6481 14.6073C11.5938 14.6001 11.5415 14.5823 11.4941 14.5549C11.4467 14.5276 11.4051 14.4911 11.3718 14.4476C11.3385 14.4042 11.3141 14.3546 11.3 14.3017L10.9767 13.0946ZM1.92251 12.3683C1.86962 12.3541 1.81445 12.3504 1.76014 12.3575C1.70584 12.3646 1.65346 12.3824 1.60602 12.4097C1.55857 12.4371 1.51699 12.4735 1.48364 12.517C1.45029 12.5604 1.42584 12.61 1.41167 12.6629L1.08834 13.87C1.07416 13.9229 1.07054 13.978 1.07767 14.0322C1.0848 14.0865 1.10255 14.1388 1.1299 14.1862C1.15726 14.2336 1.19368 14.2752 1.2371 14.3085C1.28051 14.3418 1.33006 14.3663 1.38292 14.3804L2.18792 14.5963C2.24078 14.6104 2.29591 14.6141 2.35017 14.6069C2.40443 14.5998 2.45676 14.582 2.50415 14.5547C2.55155 14.5273 2.5931 14.4909 2.62642 14.4475C2.65974 14.4041 2.68418 14.3545 2.69834 14.3017L3.02167 13.0942C3.03592 13.0413 3.03959 12.9861 3.03249 12.9318C3.02539 12.8775 3.00765 12.8251 2.98029 12.7777C2.95293 12.7302 2.91648 12.6886 2.87304 12.6553C2.82959 12.622 2.78 12.5975 2.72709 12.5833L1.92251 12.3683ZM7.41667 14.25C7.41667 14.3605 7.37278 14.4665 7.29464 14.5446C7.2165 14.6228 7.11052 14.6667 7.00001 14.6667C6.8895 14.6667 6.78352 14.6228 6.70538 14.5446C6.62724 14.4665 6.58334 14.3605 6.58334 14.25C6.58334 14.1395 6.62724 14.0335 6.70538 13.9554C6.78352 13.8772 6.8895 13.8333 7.00001 13.8333C7.11052 13.8333 7.2165 13.8772 7.29464 13.9554C7.37278 14.0335 7.41667 14.1395 7.41667 14.25Z" fill="#808494"/>
</svg>
