<svg width="22" height="20" viewBox="0 0 22 20" fill="none" xmlns="http://www.w3.org/2000/svg">
<path d="M11.5701 15.3348C11.5701 15.5835 11.4713 15.8219 11.2955 15.9977C11.1197 16.1735 10.8812 16.2723 10.6326 16.2723C10.3839 16.2723 10.1455 16.1735 9.96968 15.9977C9.79386 15.8219 9.69509 15.5835 9.69509 15.3348C9.69509 15.0862 9.79386 14.8477 9.96968 14.6719C10.1455 14.4961 10.3839 14.3973 10.6326 14.3973C10.8812 14.3973 11.1197 14.4961 11.2955 14.6719C11.4713 14.8477 11.5701 15.0862 11.5701 15.3348ZM10.6326 5.58481C10.4337 5.58481 10.2429 5.66383 10.1023 5.80448C9.96161 5.94514 9.88259 6.1359 9.88259 6.33481V12.3348C9.88259 12.5337 9.96161 12.7245 10.1023 12.8651C10.2429 13.0058 10.4337 13.0848 10.6326 13.0848C10.8315 13.0848 11.0223 13.0058 11.1629 12.8651C11.3036 12.7245 11.3826 12.5337 11.3826 12.3348V6.33481C11.3826 6.1359 11.3036 5.94514 11.1629 5.80448C11.0223 5.66383 10.8315 5.58481 10.6326 5.58481ZM8.33459 1.69156C9.33359 -0.115938 11.9316 -0.115938 12.9306 1.69156L20.8003 15.9408C21.7671 17.6898 20.5011 19.8348 18.5031 19.8348H2.76284C0.764088 19.8348 -0.501162 17.6898 0.464838 15.9408L8.33459 1.69156ZM11.6173 2.41681C11.5201 2.24079 11.3775 2.09405 11.2043 1.99186C11.0311 1.88967 10.8337 1.83577 10.6326 1.83577C10.4315 1.83577 10.2341 1.88967 10.0609 1.99186C9.8877 2.09405 9.74507 2.24079 9.64784 2.41681L1.77809 16.6661C1.68353 16.8373 1.63527 17.0303 1.63807 17.2259C1.64087 17.4216 1.69464 17.6131 1.79407 17.7816C1.8935 17.9501 2.03516 18.0897 2.20505 18.1867C2.37494 18.2838 2.56719 18.3348 2.76284 18.3348H18.5031C18.6987 18.3348 18.891 18.2838 19.0609 18.1867C19.2308 18.0897 19.3724 17.9501 19.4719 17.7816C19.5713 17.6131 19.6251 17.4216 19.6279 17.2259C19.6307 17.0303 19.5824 16.8373 19.4878 16.6661L11.6173 2.41681Z" fill="#F47C0E"/>
</svg>
