<svg width="16" height="11" viewBox="0 0 16 11" fill="none" xmlns="http://www.w3.org/2000/svg">
<path d="M8.00002 1.64974C9.22584 1.64566 10.4279 1.9876 11.4681 2.63622C12.5083 3.28485 13.3443 4.21385 13.88 5.31641C12.78 7.56307 10.5334 8.98307 8.00002 8.98307C5.46669 8.98307 3.22002 7.56307 2.12002 5.31641C2.65577 4.21385 3.49178 3.28485 4.53194 2.63622C5.5721 1.9876 6.7742 1.64566 8.00002 1.64974ZM8.00002 0.316406C4.66669 0.316406 1.82002 2.38974 0.666687 5.31641C1.82002 8.24307 4.66669 10.3164 8.00002 10.3164C11.3334 10.3164 14.18 8.24307 15.3334 5.31641C14.18 2.38974 11.3334 0.316406 8.00002 0.316406ZM8.00002 3.64974C8.44205 3.64974 8.86597 3.82533 9.17853 4.1379C9.49109 4.45046 9.66669 4.87438 9.66669 5.31641C9.66669 5.75843 9.49109 6.18236 9.17853 6.49492C8.86597 6.80748 8.44205 6.98307 8.00002 6.98307C7.55799 6.98307 7.13407 6.80748 6.82151 6.49492C6.50895 6.18236 6.33335 5.75843 6.33335 5.31641C6.33335 4.87438 6.50895 4.45046 6.82151 4.1379C7.13407 3.82533 7.55799 3.64974 8.00002 3.64974ZM8.00002 2.31641C6.34669 2.31641 5.00002 3.66307 5.00002 5.31641C5.00002 6.96974 6.34669 8.31641 8.00002 8.31641C9.65335 8.31641 11 6.96974 11 5.31641C11 3.66307 9.65335 2.31641 8.00002 2.31641Z" fill="#272D37"/>
</svg>
