<svg width="26" height="27" viewBox="0 0 26 27" fill="none" xmlns="http://www.w3.org/2000/svg">
<path d="M10.7148 2.75H7.99805C6.50846 2.75 5.31934 3.21549 4.43066 4.14648C3.54199 5.07747 3.09766 6.31315 3.09766 7.85352V10.1641H0.40625C0.304688 10.1641 0.211589 10.2064 0.126953 10.291C0.0423177 10.3757 0 10.4688 0 10.5703V13.9473C0 14.0488 0.0423177 14.1419 0.126953 14.2266C0.211589 14.3112 0.304688 14.3535 0.40625 14.3535H3.09766V22.8594C3.09766 22.9609 3.13997 23.054 3.22461 23.1387C3.30924 23.2233 3.40234 23.2656 3.50391 23.2656H7.00781C7.10938 23.2656 7.20247 23.2233 7.28711 23.1387C7.37174 23.054 7.41406 22.9609 7.41406 22.8594V14.3535H10.5117C10.6133 14.3535 10.7064 14.3112 10.791 14.2266C10.8757 14.1419 10.918 14.0488 10.918 13.9473V10.5703C10.918 10.5195 10.9137 10.4688 10.9053 10.418C10.8968 10.3672 10.8672 10.3164 10.8164 10.2656C10.7656 10.2148 10.7148 10.1852 10.6641 10.1768C10.6133 10.1683 10.5625 10.1641 10.5117 10.1641H7.41406V8.1582C7.41406 7.70117 7.50293 7.35417 7.68066 7.11719C7.8584 6.88021 8.26888 6.76172 8.91211 6.76172H10.7148C10.8164 6.76172 10.9095 6.7194 10.9941 6.63477C11.0788 6.55013 11.1211 6.45703 11.1211 6.35547V3.25781C11.1211 3.10547 11.0788 2.98275 10.9941 2.88965C10.9095 2.79655 10.8164 2.75 10.7148 2.75Z" fill="#B9B9B9"/>
</svg>
