<svg width="19" height="18" viewBox="0 0 19 18" fill="none" xmlns="http://www.w3.org/2000/svg">
<path d="M17.8333 3.84458V4.41958C17.8333 5.28458 17.8333 5.71708 17.6166 6.07542C17.4 6.43375 17.0058 6.65625 16.215 7.10125L13.7875 8.46792C13.2575 8.76625 12.9916 8.91625 12.8025 9.08042C12.4213 9.39932 12.1573 9.83627 12.0525 10.3221C12 10.5596 12 10.8379 12 11.3937V13.6188C12 15.2096 12 16.0046 11.4433 16.3529C10.8866 16.7013 10.1041 16.3946 8.53829 15.7829C7.79246 15.4913 7.41996 15.3463 7.20996 15.0504C6.99996 14.7554 6.99996 14.3754 6.99996 13.6179V11.3929C6.99996 10.8379 6.99996 10.5596 6.94663 10.3221C6.84219 9.8365 6.57887 9.39958 6.19829 9.08042C6.00829 8.91625 5.74246 8.76625 5.21246 8.46792L2.78496 7.10125C1.99413 6.65625 1.59913 6.43458 1.38329 6.07625C1.16663 5.71625 1.16663 5.28375 1.16663 4.41875V3.84375" stroke="#9CA3AF" stroke-width="1.5"/>
<path opacity="0.5" d="M17.8333 3.84583C17.8333 2.74 17.8333 2.1875 17.4666 1.84333C17.1016 1.5 16.5125 1.5 15.3333 1.5H3.66663C2.48829 1.5 1.89913 1.5 1.53329 1.84333C1.16663 2.18667 1.16663 2.74 1.16663 3.84583" stroke="#9CA3AF" stroke-width="1.5"/>
</svg>
