<svg width="27" height="28" viewBox="0 0 27 28" fill="none" xmlns="http://www.w3.org/2000/svg">
<path d="M26.9997 14.306C26.9997 13.1734 26.9078 12.3469 26.7089 11.4897H13.7754V16.6019H21.3671C21.2141 17.8723 20.3875 19.7855 18.5508 21.0712L18.525 21.2423L22.6144 24.4103L22.8977 24.4385C25.4996 22.0355 26.9997 18.4998 26.9997 14.306Z" fill="#4285F4"/>
<path d="M13.7757 27.7752C17.495 27.7752 20.6173 26.5507 22.898 24.4385L18.5511 21.0712C17.3879 21.8824 15.8266 22.4487 13.7757 22.4487C10.1329 22.4487 7.04115 20.0457 5.93902 16.7244L5.77748 16.7381L1.52533 20.0289L1.46973 20.1834C3.73498 24.6833 8.38798 27.7752 13.7757 27.7752Z" fill="#34A853"/>
<path d="M5.93863 16.7244C5.64782 15.8673 5.47952 14.9488 5.47952 13.9999C5.47952 13.0509 5.64782 12.1326 5.92333 11.2755L5.91563 11.0929L1.6102 7.74927L1.46933 7.81627C0.535712 9.68361 0 11.7806 0 13.9999C0 16.2193 0.535712 18.3161 1.46933 20.1834L5.93863 16.7244Z" fill="#FBBC05"/>
<path d="M13.7757 5.55103C16.3624 5.55103 18.1072 6.66835 19.1021 7.60207L22.9898 3.80619C20.6022 1.58684 17.495 0.224609 13.7757 0.224609C8.38798 0.224609 3.73498 3.31638 1.46973 7.81627L5.92373 11.2755C7.04116 7.95408 10.1329 5.55103 13.7757 5.55103Z" fill="#EB4335"/>
</svg>
