<svg width="35" height="35" viewBox="0 0 35 35" fill="none" xmlns="http://www.w3.org/2000/svg">
<path d="M17.5 0C22.1413 0 26.5925 1.84374 29.8744 5.12563C33.1563 8.40752 35 12.8587 35 17.5C35 22.1413 33.1563 26.5925 29.8744 29.8744C26.5925 33.1563 22.1413 35 17.5 35C12.8587 35 8.40752 33.1563 5.12563 29.8744C1.84374 26.5925 0 22.1413 0 17.5C0 12.8587 1.84374 8.40752 5.12563 5.12563C8.40752 1.84374 12.8587 0 17.5 0ZM15.32 20.9525L11.4325 17.0625C11.2931 16.9231 11.1277 16.8126 10.9456 16.7372C10.7635 16.6617 10.5683 16.6229 10.3713 16.6229C10.1742 16.6229 9.979 16.6617 9.79691 16.7372C9.61482 16.8126 9.44937 16.9231 9.31 17.0625C9.02854 17.344 8.87042 17.7257 8.87042 18.1238C8.87042 18.5218 9.02854 18.9035 9.31 19.185L14.26 24.135C14.399 24.2751 14.5643 24.3862 14.7464 24.4621C14.9286 24.538 15.1239 24.577 15.3212 24.577C15.5186 24.577 15.7139 24.538 15.8961 24.4621C16.0782 24.3862 16.2435 24.2751 16.3825 24.135L26.6325 13.8825C26.7737 13.7437 26.8861 13.5783 26.9631 13.3959C27.0401 13.2135 27.0802 13.0176 27.0811 12.8196C27.082 12.6216 27.0437 12.4254 26.9684 12.2422C26.8931 12.0591 26.7823 11.8927 26.6424 11.7526C26.5025 11.6125 26.3362 11.5015 26.1531 11.426C25.9701 11.3505 25.7739 11.312 25.5759 11.3126C25.3779 11.3133 25.182 11.3532 24.9995 11.43C24.817 11.5068 24.6515 11.6189 24.5125 11.76L15.32 20.9525Z" fill="#00BF63"/>
</svg>
