<svg width="26" height="27" viewBox="0 0 26 27" fill="none" xmlns="http://www.w3.org/2000/svg">
<path d="M15.4883 2.26953H5.89063C5.0612 2.26953 4.29102 2.42188 3.58008 2.72656C2.85221 3.04818 2.22591 3.47559 1.70117 4.00879C1.17643 4.54199 0.761719 5.17253 0.457031 5.90039C0.152344 6.61133 0 7.36458 0 8.16016V17.7578C0 18.5872 0.152344 19.3574 0.457031 20.0684C0.778646 20.7962 1.20605 21.4225 1.73926 21.9473C2.27246 22.472 2.89453 22.8867 3.60547 23.1914C4.33333 23.4961 5.09505 23.6484 5.89063 23.6484H15.4883C16.3177 23.6484 17.0879 23.4961 17.7988 23.1914C18.5267 22.8698 19.153 22.4424 19.6777 21.9092C20.2025 21.376 20.6172 20.7539 20.9219 20.043C21.2266 19.3151 21.3789 18.5534 21.3789 17.7578V8.16016C21.4128 7.36458 21.2773 6.61133 20.9727 5.90039C20.668 5.17253 20.249 4.54199 19.7158 4.00879C19.1826 3.47559 18.5521 3.04818 17.8242 2.72656C17.0964 2.42188 16.3177 2.26953 15.4883 2.26953ZM19.6016 17.8594C19.6016 18.9596 19.208 19.9033 18.4209 20.6904C17.6338 21.4775 16.6901 21.8711 15.5898 21.8711H5.99219C4.89193 21.8711 3.94824 21.4775 3.16113 20.6904C2.37402 19.9033 1.98047 18.9596 1.98047 17.8594V8.26172C1.98047 7.16146 2.37402 6.21777 3.16113 5.43066C3.94824 4.64355 4.89193 4.25 5.99219 4.25H15.5898C16.6901 4.25 17.6338 4.64355 18.4209 5.43066C19.208 6.21777 19.6016 7.16146 19.6016 8.26172V17.8594ZM10.6895 7.44922C9.91081 7.44922 9.19141 7.60156 8.53125 7.90625C7.85417 8.19401 7.27018 8.58757 6.7793 9.08691C6.28841 9.58626 5.89909 10.166 5.61133 10.8262C5.32357 11.5033 5.17969 12.2142 5.17969 12.959C5.17969 13.7376 5.33203 14.457 5.63672 15.1172C5.92448 15.7943 6.31803 16.3783 6.81738 16.8691C7.31673 17.36 7.89648 17.7493 8.55664 18.0371C9.23372 18.3249 9.94466 18.4688 10.6895 18.4688C11.4681 18.4688 12.1875 18.3164 12.8477 18.0117C13.5247 17.724 14.1087 17.3304 14.5996 16.8311C15.0905 16.3317 15.4798 15.752 15.7676 15.0918C16.0553 14.4147 16.1992 13.7038 16.1992 12.959C16.2161 12.2142 16.0892 11.5033 15.8184 10.8262C15.5306 10.166 15.137 9.58626 14.6377 9.08691C14.1383 8.58757 13.5501 8.19401 12.873 7.90625C12.196 7.60156 11.4681 7.44922 10.6895 7.44922ZM10.6895 16.666C9.69076 16.666 8.84017 16.3148 8.1377 15.6123C7.43522 14.9098 7.08398 14.0592 7.08398 13.0605C7.08398 12.0618 7.43522 11.2113 8.1377 10.5088C8.84017 9.80632 9.69076 9.45508 10.6895 9.45508C11.6882 9.45508 12.5387 9.80632 13.2412 10.5088C13.9437 11.2113 14.2949 12.0618 14.2949 13.0605C14.2949 14.0592 13.9437 14.9098 13.2412 15.6123C12.5387 16.3148 11.6882 16.666 10.6895 16.666ZM16.4785 5.84961C16.2923 5.84961 16.1188 5.87923 15.958 5.93848C15.7972 5.99772 15.6406 6.10352 15.4883 6.25586C15.3359 6.4082 15.2301 6.56478 15.1709 6.72559C15.1117 6.88639 15.082 7.06836 15.082 7.27148C15.082 7.45768 15.1117 7.63119 15.1709 7.79199C15.2301 7.9528 15.3359 8.10938 15.4883 8.26172C15.6406 8.41406 15.7972 8.51986 15.958 8.5791C16.1188 8.63835 16.2923 8.66797 16.4785 8.66797C16.6816 8.66797 16.8636 8.63835 17.0244 8.5791C17.1852 8.51986 17.3418 8.41406 17.4941 8.26172C17.6465 8.10938 17.7523 7.9528 17.8115 7.79199C17.8708 7.63119 17.9004 7.45768 17.9004 7.27148C17.9004 7.06836 17.8708 6.88639 17.8115 6.72559C17.7523 6.56478 17.6465 6.4082 17.4941 6.25586C17.3418 6.1543 17.1852 6.0612 17.0244 5.97656C16.8636 5.89193 16.6816 5.84961 16.4785 5.84961Z" fill="#B9B9B9"/>
</svg>
