<svg width="39" height="43" viewBox="0 0 39 43" fill="none" xmlns="http://www.w3.org/2000/svg">
<g clip-path="url(#clip0_22_1304)">
<path opacity="0.2" d="M0.449951 11.2498C0.449951 5.55729 4.72883 0.942627 10.0071 0.942627H29.1214C34.3997 0.942627 38.6785 5.55729 38.6785 11.2498V31.8641C38.6785 37.5566 34.3997 42.1712 29.1214 42.1712H10.0071C4.72883 42.1712 0.449951 37.5566 0.449951 31.8641V11.2498Z" fill="#3BBB96"/>
<path d="M19.5642 31.8643C24.8431 31.8643 29.1214 27.2502 29.1214 21.5571C29.1214 15.8641 24.8431 11.25 19.5642 11.25C14.2854 11.25 10.0071 15.8641 10.0071 21.5571C10.0071 27.2502 14.2854 31.8643 19.5642 31.8643ZM18.0709 24.7781H18.9669V22.2013H18.0709C17.5744 22.2013 17.1749 21.7706 17.1749 21.235C17.1749 20.6996 17.5744 20.2688 18.0709 20.2688H19.8629C20.3594 20.2688 20.7589 20.6996 20.7589 21.235V24.7781H21.0575C21.5541 24.7781 21.9535 25.209 21.9535 25.7444C21.9535 26.2799 21.5541 26.7107 21.0575 26.7107H18.0709C17.5744 26.7107 17.1749 26.2799 17.1749 25.7444C17.1749 25.209 17.5744 24.7781 18.0709 24.7781ZM19.5642 18.9804C18.9035 18.9804 18.3696 18.4046 18.3696 17.692C18.3696 16.9794 18.9035 16.4036 19.5642 16.4036C20.225 16.4036 20.7589 16.9794 20.7589 17.692C20.7589 18.4046 20.225 18.9804 19.5642 18.9804Z" fill="#3BBB96"/>
</g>
<defs>
<clipPath id="clip0_22_1304">
<rect width="38.2286" height="41.2286" fill="white" transform="translate(0.449951 0.942871)"/>
</clipPath>
</defs>
</svg>
