<svg width="20" height="18" viewBox="0 0 20 18" fill="none" xmlns="http://www.w3.org/2000/svg">
<path d="M19.1663 8.33203C19.1663 7.89 18.9907 7.46608 18.6782 7.15352C18.3656 6.84096 17.9417 6.66536 17.4997 6.66536H12.233L13.033 2.85703C13.0497 2.7737 13.058 2.68203 13.058 2.59036C13.058 2.2487 12.9163 1.93203 12.6913 1.70703L11.808 0.832031L6.32467 6.31536C6.01634 6.6237 5.83301 7.04036 5.83301 7.4987V15.832C5.83301 16.2741 6.0086 16.698 6.32116 17.0105C6.63372 17.3231 7.05765 17.4987 7.49967 17.4987H14.9997C15.6913 17.4987 16.283 17.082 16.533 16.482L19.0497 10.607C19.1247 10.4154 19.1663 10.2154 19.1663 9.9987V8.33203ZM0.833008 17.4987H4.16634V7.4987H0.833008V17.4987Z" fill="#808494"/>
</svg>
