<svg width="12" height="18" viewBox="0 0 12 18" fill="none" xmlns="http://www.w3.org/2000/svg">
<path d="M5.99984 8.58464C5.4473 8.58464 4.9174 8.36514 4.5267 7.97444C4.136 7.58374 3.9165 7.05384 3.9165 6.5013C3.9165 5.94877 4.136 5.41886 4.5267 5.02816C4.9174 4.63746 5.4473 4.41797 5.99984 4.41797C6.55237 4.41797 7.08228 4.63746 7.47298 5.02816C7.86368 5.41886 8.08317 5.94877 8.08317 6.5013C8.08317 6.77489 8.02928 7.0458 7.92459 7.29856C7.81989 7.55132 7.66643 7.78099 7.47298 7.97444C7.27952 8.1679 7.04986 8.32135 6.79709 8.42605C6.54433 8.53075 6.27342 8.58464 5.99984 8.58464ZM5.99984 0.667969C4.45274 0.667969 2.96901 1.28255 1.87505 2.37651C0.781085 3.47047 0.166504 4.95421 0.166504 6.5013C0.166504 10.8763 5.99984 17.3346 5.99984 17.3346C5.99984 17.3346 11.8332 10.8763 11.8332 6.5013C11.8332 4.95421 11.2186 3.47047 10.1246 2.37651C9.03066 1.28255 7.54693 0.667969 5.99984 0.667969Z" fill="#5F6D7E"/>
</svg>
