<svg width="20" height="20" viewBox="0 0 20 20" fill="none" xmlns="http://www.w3.org/2000/svg">
<path d="M6.66665 4.99967C6.66665 5.4417 6.49105 5.86563 6.17849 6.17819C5.86593 6.49075 5.44201 6.66634 4.99998 6.66634C4.55795 6.66634 4.13403 6.49075 3.82147 6.17819C3.50891 5.86563 3.33331 5.4417 3.33331 4.99967C3.33331 4.55765 3.50891 4.13372 3.82147 3.82116C4.13403 3.5086 4.55795 3.33301 4.99998 3.33301C5.44201 3.33301 5.86593 3.5086 6.17849 3.82116C6.49105 4.13372 6.66665 4.55765 6.66665 4.99967ZM6.66665 9.99967C6.66665 10.4417 6.49105 10.8656 6.17849 11.1782C5.86593 11.4907 5.44201 11.6663 4.99998 11.6663C4.55795 11.6663 4.13403 11.4907 3.82147 11.1782C3.50891 10.8656 3.33331 10.4417 3.33331 9.99967C3.33331 9.55765 3.50891 9.13372 3.82147 8.82116C4.13403 8.5086 4.55795 8.33301 4.99998 8.33301C5.44201 8.33301 5.86593 8.5086 6.17849 8.82116C6.49105 9.13372 6.66665 9.55765 6.66665 9.99967ZM4.99998 16.6663C5.44201 16.6663 5.86593 16.4907 6.17849 16.1782C6.49105 15.8656 6.66665 15.4417 6.66665 14.9997C6.66665 14.5576 6.49105 14.1337 6.17849 13.8212C5.86593 13.5086 5.44201 13.333 4.99998 13.333C4.55795 13.333 4.13403 13.5086 3.82147 13.8212C3.50891 14.1337 3.33331 14.5576 3.33331 14.9997C3.33331 15.4417 3.50891 15.8656 3.82147 16.1782C4.13403 16.4907 4.55795 16.6663 4.99998 16.6663ZM11.6666 4.99967C11.6666 5.4417 11.4911 5.86563 11.1785 6.17819C10.8659 6.49075 10.442 6.66634 9.99998 6.66634C9.55795 6.66634 9.13403 6.49075 8.82147 6.17819C8.50891 5.86563 8.33331 5.4417 8.33331 4.99967C8.33331 4.55765 8.50891 4.13372 8.82147 3.82116C9.13403 3.5086 9.55795 3.33301 9.99998 3.33301C10.442 3.33301 10.8659 3.5086 11.1785 3.82116C11.4911 4.13372 11.6666 4.55765 11.6666 4.99967ZM9.99998 11.6663C10.442 11.6663 10.8659 11.4907 11.1785 11.1782C11.4911 10.8656 11.6666 10.4417 11.6666 9.99967C11.6666 9.55765 11.4911 9.13372 11.1785 8.82116C10.8659 8.5086 10.442 8.33301 9.99998 8.33301C9.55795 8.33301 9.13403 8.5086 8.82147 8.82116C8.50891 9.13372 8.33331 9.55765 8.33331 9.99967C8.33331 10.4417 8.50891 10.8656 8.82147 11.1782C9.13403 11.4907 9.55795 11.6663 9.99998 11.6663ZM11.6666 14.9997C11.6666 15.4417 11.4911 15.8656 11.1785 16.1782C10.8659 16.4907 10.442 16.6663 9.99998 16.6663C9.55795 16.6663 9.13403 16.4907 8.82147 16.1782C8.50891 15.8656 8.33331 15.4417 8.33331 14.9997C8.33331 14.5576 8.50891 14.1337 8.82147 13.8212C9.13403 13.5086 9.55795 13.333 9.99998 13.333C10.442 13.333 10.8659 13.5086 11.1785 13.8212C11.4911 14.1337 11.6666 14.5576 11.6666 14.9997ZM15 6.66634C15.442 6.66634 15.8659 6.49075 16.1785 6.17819C16.4911 5.86563 16.6666 5.4417 16.6666 4.99967C16.6666 4.55765 16.4911 4.13372 16.1785 3.82116C15.8659 3.5086 15.442 3.33301 15 3.33301C14.558 3.33301 14.134 3.5086 13.8215 3.82116C13.5089 4.13372 13.3333 4.55765 13.3333 4.99967C13.3333 5.4417 13.5089 5.86563 13.8215 6.17819C14.134 6.49075 14.558 6.66634 15 6.66634ZM16.6666 9.99967C16.6666 10.4417 16.4911 10.8656 16.1785 11.1782C15.8659 11.4907 15.442 11.6663 15 11.6663C14.558 11.6663 14.134 11.4907 13.8215 11.1782C13.5089 10.8656 13.3333 10.4417 13.3333 9.99967C13.3333 9.55765 13.5089 9.13372 13.8215 8.82116C14.134 8.5086 14.558 8.33301 15 8.33301C15.442 8.33301 15.8659 8.5086 16.1785 8.82116C16.4911 9.13372 16.6666 9.55765 16.6666 9.99967ZM15 16.6663C15.442 16.6663 15.8659 16.4907 16.1785 16.1782C16.4911 15.8656 16.6666 15.4417 16.6666 14.9997C16.6666 14.5576 16.4911 14.1337 16.1785 13.8212C15.8659 13.5086 15.442 13.333 15 13.333C14.558 13.333 14.134 13.5086 13.8215 13.8212C13.5089 14.1337 13.3333 14.5576 13.3333 14.9997C13.3333 15.4417 13.5089 15.8656 13.8215 16.1782C14.134 16.4907 14.558 16.6663 15 16.6663Z" fill="#F8F8F8"/>
</svg>
