<svg width="38" height="23" viewBox="0 0 38 23" fill="none" xmlns="http://www.w3.org/2000/svg">
<path d="M18.9763 5.25C17.7402 5.25 16.5318 5.61656 15.504 6.30332C14.4762 6.99007 13.6751 7.96619 13.2021 9.10823C12.729 10.2503 12.6053 11.5069 12.8464 12.7193C13.0876 13.9317 13.6828 15.0453 14.5569 15.9194C15.431 16.7935 16.5446 17.3888 17.757 17.6299C18.9694 17.8711 20.2261 17.7473 21.3681 17.2742C22.5101 16.8012 23.4862 16.0001 24.173 14.9723C24.8598 13.9445 25.2263 12.7361 25.2263 11.5C25.2263 9.8424 24.5678 8.25268 23.3957 7.08058C22.2236 5.90848 20.6339 5.25 18.9763 5.25ZM18.9763 15.25C18.2346 15.25 17.5096 15.0301 16.8929 14.618C16.2762 14.206 15.7956 13.6203 15.5118 12.9351C15.2279 12.2498 15.1537 11.4958 15.2984 10.7684C15.4431 10.041 15.8002 9.3728 16.3247 8.84835C16.8491 8.3239 17.5173 7.96675 18.2447 7.82205C18.9722 7.67736 19.7262 7.75162 20.4114 8.03545C21.0966 8.31928 21.6823 8.79993 22.0943 9.41661C22.5064 10.0333 22.7263 10.7583 22.7263 11.5C22.7263 12.4946 22.3312 13.4484 21.628 14.1517C20.9247 14.8549 19.9709 15.25 18.9763 15.25ZM36.4763 0.25H1.47632C1.1448 0.25 0.826855 0.381696 0.592435 0.616117C0.358014 0.850537 0.226318 1.16848 0.226318 1.5V21.5C0.226318 21.8315 0.358014 22.1495 0.592435 22.3839C0.826855 22.6183 1.1448 22.75 1.47632 22.75H36.4763C36.8078 22.75 37.1258 22.6183 37.3602 22.3839C37.5946 22.1495 37.7263 21.8315 37.7263 21.5V1.5C37.7263 1.16848 37.5946 0.850537 37.3602 0.616117C37.1258 0.381696 36.8078 0.25 36.4763 0.25ZM29.2341 20.25H8.71851C8.29883 18.8306 7.5307 17.5388 6.48411 16.4922C5.43751 15.4456 4.14569 14.6775 2.72632 14.2578V8.74219C4.14569 8.32251 5.43751 7.55439 6.48411 6.50779C7.5307 5.46119 8.29883 4.16937 8.71851 2.75H29.2341C29.6538 4.16937 30.4219 5.46119 31.4685 6.50779C32.5151 7.55439 33.8069 8.32251 35.2263 8.74219V14.2578C33.8069 14.6775 32.5151 15.4456 31.4685 16.4922C30.4219 17.5388 29.6538 18.8306 29.2341 20.25ZM35.2263 6.08906C33.727 5.44436 32.532 4.24932 31.8873 2.75H35.2263V6.08906ZM6.06538 2.75C5.42068 4.24932 4.22563 5.44436 2.72632 6.08906V2.75H6.06538ZM2.72632 16.9109C4.22563 17.5556 5.42068 18.7507 6.06538 20.25H2.72632V16.9109ZM31.8873 20.25C32.532 18.7507 33.727 17.5556 35.2263 16.9109V20.25H31.8873Z" fill="black"/>
</svg>
