<svg width="20" height="20" viewBox="0 0 20 20" fill="none" xmlns="http://www.w3.org/2000/svg">
<path fill-rule="evenodd" clip-rule="evenodd" d="M2.41699 10.0013C2.41699 5.81552 5.81454 2.41797 10.0003 2.41797C10.4145 2.41797 10.7503 2.08218 10.7503 1.66797C10.7503 1.25376 10.4145 0.917969 10.0003 0.917969C4.98611 0.917969 0.916992 4.98709 0.916992 10.0013C0.916992 15.0155 4.98611 19.0846 10.0003 19.0846C15.0145 19.0846 19.0837 15.0155 19.0837 10.0013C19.0837 9.58709 18.7479 9.2513 18.3337 9.2513C17.9194 9.2513 17.5837 9.58709 17.5837 10.0013C17.5837 14.1871 14.1861 17.5846 10.0003 17.5846C5.81454 17.5846 2.41699 14.1871 2.41699 10.0013ZM7.47236 9.99982V13.332H8.79115V9.99982H9.83247L11.177 13.332H12.8884V9.99982H13.6938V9.15418H12.8884V5.83203H11.5697V9.15418H10.5385L9.16363 5.83203H7.47236V9.15418H6.66699V9.99982H7.47236ZM8.79115 9.15418H9.49125L8.79115 7.41914V9.15418ZM10.8884 9.99982L11.5697 11.6459V9.99982H10.8884ZM14.167 1.75C14.5812 1.75 14.917 2.08579 14.917 2.5V4.02398L17.8033 1.13764C18.0962 0.844745 18.5711 0.844745 18.864 1.13764C19.1569 1.43053 19.1569 1.90541 18.864 2.1983L15.979 5.08333H17.5003C17.9145 5.08333 18.2503 5.41912 18.2503 5.83333C18.2503 6.24755 17.9145 6.58333 17.5003 6.58333H14.2113C14.0049 6.59548 13.7944 6.52269 13.6367 6.36497C13.4901 6.21839 13.4169 6.02624 13.417 5.83413C13.417 5.83386 13.417 5.8336 13.417 5.83333V2.5C13.417 2.08579 13.7528 1.75 14.167 1.75Z" fill="#6B7280"/>
</svg>
