<svg width="20" height="19" viewBox="0 0 20 19" fill="none" xmlns="http://www.w3.org/2000/svg">
<path fill-rule="evenodd" clip-rule="evenodd" d="M13.6367 5.21056C13.3438 5.50345 13.3438 5.97832 13.6367 6.27122C13.9296 6.56411 14.4044 6.56411 14.6973 6.27122L17.5837 3.38488V4.90885C17.5837 5.32307 17.9194 5.65885 18.3337 5.65885C18.7479 5.65885 19.0837 5.32307 19.0837 4.90885V1.57552C19.0837 1.5753 19.0837 1.57509 19.0837 1.57487C19.0838 1.38271 19.0106 1.1905 18.864 1.04389C18.7063 0.886165 18.4958 0.813376 18.2893 0.825521H15.0003C14.5861 0.825521 14.2503 1.16131 14.2503 1.57552C14.2503 1.98973 14.5861 2.32552 15.0003 2.32552H16.5217L13.6367 5.21056ZM2.41699 9.90755C2.41699 5.72177 5.81454 2.32422 10.0003 2.32422C10.4145 2.32422 10.7503 1.98843 10.7503 1.57422C10.7503 1.16001 10.4145 0.824219 10.0003 0.824219C4.98611 0.824219 0.916992 4.89334 0.916992 9.90755C0.916992 14.9218 4.98611 18.9909 10.0003 18.9909C15.0145 18.9909 19.0837 14.9218 19.0837 9.90755C19.0837 9.49334 18.7479 9.15755 18.3337 9.15755C17.9194 9.15755 17.5837 9.49334 17.5837 9.90755C17.5837 14.0933 14.1861 17.4909 10.0003 17.4909C5.81454 17.4909 2.41699 14.0933 2.41699 9.90755ZM7.47236 9.90607V13.2383H8.79115V9.90607H9.83247L11.177 13.2383H12.8884V9.90607H13.6938V9.06043H12.8884V5.73828H11.5697V9.06043H10.5385L9.16363 5.73828H7.47236V9.06043H6.66699V9.90607H7.47236ZM8.79115 9.06043H9.49125L8.79115 7.32539V9.06043ZM10.8884 9.90607L11.5697 11.5522V9.90607H10.8884Z" fill="#F21515"/>
</svg>
