<svg width="20" height="19" viewBox="0 0 20 19" fill="none" xmlns="http://www.w3.org/2000/svg">
<path fill-rule="evenodd" clip-rule="evenodd" d="M2.41699 9.90755C2.41699 5.72177 5.81454 2.32422 10.0003 2.32422C10.4145 2.32422 10.7503 1.98843 10.7503 1.57422C10.7503 1.16001 10.4145 0.824219 10.0003 0.824219C4.98611 0.824219 0.916992 4.89334 0.916992 9.90755C0.916992 14.9218 4.98611 18.9909 10.0003 18.9909C15.0145 18.9909 19.0837 14.9218 19.0837 9.90755C19.0837 9.49334 18.7479 9.15755 18.3337 9.15755C17.9194 9.15755 17.5837 9.49334 17.5837 9.90755C17.5837 14.0933 14.1861 17.4909 10.0003 17.4909C5.81454 17.4909 2.41699 14.0933 2.41699 9.90755ZM7.47236 9.90607V13.2383H8.79115V9.90607H9.83247L11.177 13.2383H12.8884V9.90607H13.6938V9.06043H12.8884V5.73828H11.5697V9.06043H10.5385L9.16363 5.73828H7.47236V9.06043H6.66699V9.90607H7.47236ZM8.79115 9.06043H9.49125L8.79115 7.32539V9.06043ZM10.8884 9.90607L11.5697 11.5522V9.90607H10.8884ZM14.167 1.65625C14.5812 1.65625 14.917 1.99204 14.917 2.40625V3.93023L17.8033 1.04389C18.0962 0.750995 18.5711 0.750995 18.864 1.04389C19.1569 1.33678 19.1569 1.81166 18.864 2.10455L15.979 4.98958H17.5003C17.9145 4.98958 18.2503 5.32537 18.2503 5.73958C18.2503 6.1538 17.9145 6.48958 17.5003 6.48958H14.2113C14.0049 6.50173 13.7944 6.42894 13.6367 6.27122C13.4901 6.12464 13.4169 5.93249 13.417 5.74038C13.417 5.74011 13.417 5.73985 13.417 5.73958V2.40625C13.417 1.99204 13.7528 1.65625 14.167 1.65625Z" fill="#00BF63"/>
</svg>
