<svg width="29" height="30" viewBox="0 0 29 30" fill="none" xmlns="http://www.w3.org/2000/svg">
<path d="M24 11.6667C23.558 11.6667 23.134 11.4911 22.8215 11.1785C22.5089 10.8659 22.3333 10.442 22.3333 10C22.3333 9.55797 22.5089 9.13405 22.8215 8.82149C23.134 8.50893 23.558 8.33333 24 8.33333C24.442 8.33333 24.8659 8.50893 25.1785 8.82149C25.4911 9.13405 25.6667 9.55797 25.6667 10C25.6667 10.442 25.4911 10.8659 25.1785 11.1785C24.8659 11.4911 24.442 11.6667 24 11.6667ZM14 11.6667H3.99999V3.33333H14M26.95 7.05L26.9667 7.03333L20.7667 0.833333L19 2.6L22.5167 6.11667C20.95 6.66667 19.8333 8.21667 19.8333 10C19.8333 10.5472 19.9411 11.089 20.1505 11.5945C20.3599 12.1 20.6668 12.5594 21.0537 12.9463C21.8351 13.7277 22.8949 14.1667 24 14.1667C24.6 14.1667 25.15 14.0333 25.6667 13.8167V25.8333C25.6667 26.2754 25.4911 26.6993 25.1785 27.0118C24.8659 27.3244 24.442 27.5 24 27.5C23.558 27.5 23.134 27.3244 22.8215 27.0118C22.5089 26.6993 22.3333 26.2754 22.3333 25.8333V18.3333C22.3333 17.4493 21.9821 16.6014 21.357 15.9763C20.7319 15.3512 19.884 15 19 15H17.3333V3.33333C17.3333 2.44928 16.9821 1.60143 16.357 0.976311C15.7319 0.351189 14.884 0 14 0H3.99999C2.14999 0 0.666656 1.48333 0.666656 3.33333V30H17.3333V17.5H19.8333V25.8333C19.8333 26.9384 20.2723 27.9982 21.0537 28.7796C21.8351 29.561 22.8949 30 24 30C24.5472 30 25.089 29.8922 25.5945 29.6828C26.1 29.4734 26.5594 29.1665 26.9463 28.7796C27.3332 28.3927 27.6401 27.9334 27.8495 27.4278C28.0589 26.9223 28.1667 26.3805 28.1667 25.8333V10C28.1667 8.85 27.7 7.8 26.95 7.05Z" fill="black"/>
</svg>
