<svg width="25" height="27" viewBox="0 0 25 27" fill="none" xmlns="http://www.w3.org/2000/svg">
<path d="M21.1748 11.0161C20.7904 11.0161 20.4218 10.8634 20.15 10.5916C19.8782 10.3198 19.7255 9.9512 19.7255 9.56682C19.7255 9.18245 19.8782 8.81381 20.15 8.54202C20.4218 8.27023 20.7904 8.11753 21.1748 8.11753C21.5592 8.11753 21.9278 8.27023 22.1996 8.54202C22.4714 8.81381 22.6241 9.18245 22.6241 9.56682C22.6241 9.9512 22.4714 10.3198 22.1996 10.5916C21.9278 10.8634 21.5592 11.0161 21.1748 11.0161ZM12.4791 11.0161H3.78334V3.76967H12.4791M23.74 7.00158L23.7545 6.98709L18.3632 1.59574L16.8269 3.13198L19.8849 6.18998C18.5226 6.66825 17.5516 8.01608 17.5516 9.56682C17.5516 10.0426 17.6453 10.5138 17.8274 10.9534C18.0095 11.393 18.2763 11.7924 18.6128 12.1288C19.2923 12.8083 20.2139 13.19 21.1748 13.19C21.6965 13.19 22.1748 13.0741 22.6241 12.8857V23.3351C22.6241 23.7194 22.4714 24.0881 22.1996 24.3599C21.9278 24.6317 21.5592 24.7843 21.1748 24.7843C20.7904 24.7843 20.4218 24.6317 20.15 24.3599C19.8782 24.0881 19.7255 23.7194 19.7255 23.3351V16.8133C19.7255 16.0445 19.4201 15.3072 18.8765 14.7637C18.3329 14.2201 17.5957 13.9147 16.8269 13.9147H15.3776V3.76967C15.3776 3.00092 15.0723 2.26366 14.5287 1.72007C13.9851 1.17648 13.2478 0.871094 12.4791 0.871094H3.78334C2.17463 0.871094 0.884766 2.16096 0.884766 3.76967V26.9583H15.3776V16.0886H17.5516V23.3351C17.5516 24.296 17.9333 25.2176 18.6128 25.8971C19.2923 26.5765 20.2139 26.9583 21.1748 26.9583C21.6506 26.9583 22.1218 26.8646 22.5613 26.6825C23.0009 26.5004 23.4004 26.2335 23.7368 25.8971C24.0732 25.5606 24.3401 25.1612 24.5222 24.7216C24.7043 24.282 24.798 23.8109 24.798 23.3351V9.56682C24.798 8.56681 24.3922 7.65376 23.74 7.00158Z" fill="#FFDE59"/>
</svg>
