<svg width="39" height="43" viewBox="0 0 39 43" fill="none" xmlns="http://www.w3.org/2000/svg">
<g clip-path="url(#clip0_22_1313)">
<path opacity="0.2" d="M0.0356445 11.2498C0.0356445 5.55729 4.31452 0.942627 9.59279 0.942627H28.7071C33.9854 0.942627 38.2642 5.55729 38.2642 11.2498V31.8641C38.2642 37.5566 33.9854 42.1712 28.7071 42.1712H9.59279C4.31452 42.1712 0.0356445 37.5566 0.0356445 31.8641V11.2498Z" fill="#ED6B22"/>
<path fill-rule="evenodd" clip-rule="evenodd" d="M14.3713 14.793V16.4035H13.3223C12.8482 16.4035 12.3927 16.6089 12.0567 16.9712L10.1192 19.0608C9.7832 19.4232 9.59277 19.9144 9.59277 20.4257V23.0295C9.59277 23.4361 9.89842 23.7658 10.2755 23.7658H14.3713V22.8455C14.3713 22.1329 14.9052 21.5571 15.566 21.5571C16.2267 21.5571 16.7606 22.1329 16.7606 22.8455V23.7658H21.5392V22.8455C21.5392 22.1329 22.0731 21.5571 22.7338 21.5571C23.3947 21.5571 23.9285 22.1329 23.9285 22.8455V23.7658H28.0244C28.4014 23.7658 28.7071 23.4361 28.7071 23.0295V20.4257C28.7071 19.9144 28.5166 19.4232 28.1806 19.0608L26.2431 16.9712C25.9071 16.6089 25.4517 16.4035 24.9776 16.4035H23.9285V14.793C23.9285 13.5489 22.9914 12.5383 21.8379 12.5383H16.462C15.3084 12.5383 14.3713 13.5489 14.3713 14.793ZM16.1633 16.4035V14.793C16.1633 14.6159 16.2977 14.4709 16.462 14.4709H21.8379C22.0021 14.4709 22.1365 14.6159 22.1365 14.793V16.4035H16.1633Z" fill="#ED6B22"/>
<path d="M26.3178 30.5761C27.6356 30.5761 28.7071 29.4206 28.7071 27.9993V25.2384C28.7071 24.8318 28.4014 24.5022 28.0244 24.5022H23.9285V25.4225C23.9285 26.1351 23.3947 26.7109 22.7338 26.7109C22.0731 26.7109 21.5392 26.1351 21.5392 25.4225V24.5022H16.7606V25.4225C16.7606 26.1351 16.2267 26.7109 15.566 26.7109C14.9052 26.7109 14.3713 26.1351 14.3713 25.4225V24.5022H10.2755C9.89842 24.5022 9.59277 24.8318 9.59277 25.2384V27.9993C9.59277 29.4206 10.6642 30.5761 11.9821 30.5761H26.3178Z" fill="#ED6B22"/>
</g>
<defs>
<clipPath id="clip0_22_1313">
<rect width="38.2286" height="41.2286" fill="white" transform="translate(0.0356445 0.942871)"/>
</clipPath>
</defs>
</svg>
