<svg width="17" height="16" viewBox="0 0 17 16" fill="none" xmlns="http://www.w3.org/2000/svg">
<path d="M12.6 7V12.75C12.6 12.9142 12.5676 13.0767 12.5048 13.2284C12.442 13.38 12.3499 13.5178 12.2339 13.6339C12.1178 13.75 11.98 13.842 11.8283 13.9048C11.6767 13.9677 11.5141 14 11.35 14H3.84998C3.51845 14 3.20051 13.8683 2.96609 13.6339C2.73167 13.3995 2.59998 13.0815 2.59998 12.75V5.25C2.59998 4.91848 2.73167 4.60054 2.96609 4.36612C3.20051 4.1317 3.51845 4 3.84998 4H9.08373M11.1 2H14.6V5.5M7.59998 9L14.35 2.25" stroke="#0167FF" stroke-linecap="round" stroke-linejoin="round"/>
</svg>
