<svg width="16" height="16" viewBox="0 0 16 16" fill="none" xmlns="http://www.w3.org/2000/svg">
<path d="M14.4286 9.07143H9.07143V14.4286C9.07143 15.0179 8.58929 15.5 8 15.5C7.41071 15.5 6.92857 15.0179 6.92857 14.4286V9.07143H1.57143C0.982143 9.07143 0.5 8.58929 0.5 8C0.5 7.41071 0.982143 6.92857 1.57143 6.92857H6.92857V1.57143C6.92857 0.982143 7.41071 0.5 8 0.5C8.58929 0.5 9.07143 0.982143 9.07143 1.57143V6.92857H14.4286C15.0179 6.92857 15.5 7.41071 15.5 8C15.5 8.58929 15.0179 9.07143 14.4286 9.07143Z" fill="white"/>
</svg>
