<svg width="20" height="20" viewBox="0 0 20 20" fill="none" xmlns="http://www.w3.org/2000/svg">
<g clip-path="url(#clip0_715_4223)">
<path d="M18.3334 10.4167C18.3334 10.4167 20.0001 12.225 20.0001 13.3333C20.0001 13.7754 19.8245 14.1993 19.5119 14.5118C19.1993 14.8244 18.7754 15 18.3334 15C17.8914 15 17.4674 14.8244 17.1549 14.5118C16.8423 14.1993 16.6667 13.7754 16.6667 13.3333C16.6667 12.225 18.3334 10.4167 18.3334 10.4167ZM5.00006 5H8.33339C8.5544 5 8.76637 5.0878 8.92265 5.24408C9.07893 5.40036 9.16672 5.61232 9.16672 5.83333C9.16672 6.05435 9.07893 6.26631 8.92265 6.42259C8.76637 6.57887 8.5544 6.66667 8.33339 6.66667H7.50006V8.33333H9.16672C9.78339 8.33333 10.3251 8.66667 10.6084 9.16667L16.0334 6.03333L18.7501 7.60833C19.1667 7.83333 19.2834 8.33333 19.0584 8.75C18.8251 9.14167 18.3334 9.28333 17.9167 9.05L16.1667 8.04167L13.1251 13.3083C12.8417 13.8167 12.2917 14.1667 11.6667 14.1667H4.16672C3.7247 14.1667 3.30077 13.9911 2.98821 13.6785C2.67565 13.366 2.50006 12.942 2.50006 12.5V10C2.50006 9.55797 2.67565 9.13405 2.98821 8.82149C3.30077 8.50893 3.7247 8.33333 4.16672 8.33333H5.83339V6.66667H5.00006C4.77904 6.66667 4.56708 6.57887 4.4108 6.42259C4.25452 6.26631 4.16672 6.05435 4.16672 5.83333C4.16672 5.61232 4.25452 5.40036 4.4108 5.24408C4.56708 5.0878 4.77904 5 5.00006 5ZM4.16672 10V12.5H11.6667L13.3834 9.525L10.5001 11.1917L9.74172 10H4.16672ZM0.316724 7.675L1.74172 6.25C2.08339 5.925 2.59172 5.925 2.91672 6.25C3.24172 6.575 3.24172 7.08333 2.91672 7.425L1.49172 8.85C1.16672 9.16667 0.641724 9.16667 0.316724 8.85C5.69671e-05 8.525 5.69671e-05 8 0.316724 7.675Z" fill="#808494"/>
</g>
<defs>
<clipPath id="clip0_715_4223">
<rect width="20" height="20" fill="white"/>
</clipPath>
</defs>
</svg>
