<svg width="30" height="30" viewBox="0 0 30 30" fill="none" xmlns="http://www.w3.org/2000/svg">
<g clip-path="url(#clip0_491_9832)">
<path d="M13.125 7.5V9.375H7.5V7.5H13.125ZM7.5 13.125V11.25H13.125V13.125H7.5ZM7.5 16.875V15H11.25V16.875H7.5ZM5.625 7.5V9.375H3.75V7.5H5.625ZM5.625 11.25V13.125H3.75V11.25H5.625ZM3.75 16.875V15H5.625V16.875H3.75ZM1.875 1.875V28.125H11.25V30H0V0H16.333L24.375 8.04199V11.25H22.5V9.375H15V1.875H1.875ZM16.875 3.20801V7.5H21.167L16.875 3.20801ZM26.25 15H30V30H13.125V15H16.875V13.125H18.75V15H24.375V13.125H26.25V15ZM28.125 28.125V20.625H15V28.125H28.125ZM28.125 18.75V16.875H15V18.75H28.125Z" fill="#222222"/>
</g>
<defs>
<clipPath id="clip0_491_9832">
<rect width="30" height="30" fill="white"/>
</clipPath>
</defs>
</svg>
