<svg width="16" height="16" viewBox="0 0 16 16" fill="none" xmlns="http://www.w3.org/2000/svg">
<g clip-path="url(#clip0_258_2155)">
<path d="M7 4V5H4V4H7ZM4 7V6H7V7H4ZM4 9V8H6V9H4ZM3 4V5H2V4H3ZM3 6V7H2V6H3ZM2 9V8H3V9H2ZM1 1V15H6V16H0V0H8.71094L13 4.28906V6H12V5H8V1H1ZM9 1.71094V4H11.2891L9 1.71094ZM14 8H16V16H7V8H9V7H10V8H13V7H14V8ZM15 15V11H8V15H15ZM15 10V9H8V10H15Z" fill="#808494"/>
</g>
<defs>
<clipPath id="clip0_258_2155">
<rect width="16" height="16" fill="white"/>
</clipPath>
</defs>
</svg>
