<svg width="20" height="21" viewBox="0 0 20 21" fill="none" xmlns="http://www.w3.org/2000/svg">
<g clip-path="url(#clip0_258_2230)">
<path d="M8.60417 3.70485C8.95917 2.19734 11.0408 2.19734 11.3958 3.70485C11.4491 3.93132 11.5535 4.14163 11.7006 4.31867C11.8477 4.49571 12.0332 4.63447 12.2422 4.72366C12.4512 4.81285 12.6776 4.84995 12.9032 4.83194C13.1287 4.81392 13.3469 4.74131 13.54 4.62C14.8258 3.81302 16.2983 5.32911 15.515 6.65462C15.3974 6.8535 15.327 7.07815 15.3096 7.31032C15.2922 7.54248 15.3281 7.77562 15.4146 7.99076C15.5011 8.20591 15.6356 8.397 15.8073 8.5485C15.9789 8.7 16.1829 8.80764 16.4025 8.86266C17.8658 9.22838 17.8658 11.3729 16.4025 11.7386C16.1827 11.7935 15.9785 11.9011 15.8067 12.0526C15.6348 12.2041 15.5001 12.3953 15.4135 12.6105C15.327 12.8258 15.291 13.0591 15.3084 13.2914C15.3259 13.5238 15.3964 13.7485 15.5142 13.9475C16.2975 15.2722 14.8258 16.7891 13.5392 15.9821C13.3461 15.861 13.1281 15.7885 12.9027 15.7705C12.6773 15.7525 12.451 15.7896 12.2422 15.8787C12.0333 15.9678 11.8479 16.1064 11.7008 16.2832C11.5537 16.4601 11.4492 16.6702 11.3958 16.8964C11.0408 18.4039 8.95917 18.4039 8.60417 16.8964C8.5509 16.6699 8.44648 16.4596 8.29941 16.2826C8.15233 16.1056 7.96676 15.9668 7.75779 15.8776C7.54882 15.7884 7.32236 15.7513 7.09684 15.7693C6.87133 15.7873 6.65313 15.86 6.46 15.9813C5.17417 16.7882 3.70167 15.2722 4.485 13.9466C4.60258 13.7478 4.67296 13.5231 4.6904 13.291C4.70785 13.0588 4.67187 12.8257 4.58539 12.6105C4.49892 12.3954 4.36438 12.2043 4.19273 12.0528C4.02107 11.9013 3.81714 11.7936 3.5975 11.7386C2.13417 11.3729 2.13417 9.22838 3.5975 8.86266C3.81733 8.80779 4.02148 8.70022 4.19333 8.5487C4.36518 8.39719 4.49988 8.20601 4.58645 7.99073C4.67303 7.77546 4.70904 7.54216 4.69156 7.30984C4.67407 7.07751 4.60359 6.85272 4.48583 6.65377C3.7025 5.32911 5.17417 3.81216 6.46083 4.61914C7.29417 5.14111 8.37417 4.67924 8.60417 3.70485Z" stroke="#808494" stroke-width="2.38235" stroke-linecap="round" stroke-linejoin="round"/>
<path d="M10 12.8761C11.3807 12.8761 12.5 11.723 12.5 10.3006C12.5 8.87824 11.3807 7.72516 10 7.72516C8.61929 7.72516 7.5 8.87824 7.5 10.3006C7.5 11.723 8.61929 12.8761 10 12.8761Z" stroke="#808494" stroke-width="2.38235" stroke-linecap="round" stroke-linejoin="round"/>
</g>
<defs>
<clipPath id="clip0_258_2230">
<rect width="20" height="20.6038" fill="white"/>
</clipPath>
</defs>
</svg>
