<svg width="30" height="30" viewBox="0 0 30 30" fill="none" xmlns="http://www.w3.org/2000/svg">
<path d="M16.0001 0.25L15.6088 0.6L1.35005 15.0162L0.492554 15.8762L1.3513 16.7763L13.2263 28.6513L14.1263 29.51L14.9888 28.6513L29.4013 14.3925L29.7501 14V0.25H16.0001ZM17.0551 2.75H27.2501V12.945L14.1251 25.9925L4.00755 15.875L17.0551 2.75ZM23.5001 5.25C23.1685 5.25 22.8506 5.3817 22.6162 5.61612C22.3818 5.85054 22.2501 6.16848 22.2501 6.5C22.2501 6.83152 22.3818 7.14946 22.6162 7.38388C22.8506 7.6183 23.1685 7.75 23.5001 7.75C23.8316 7.75 24.1495 7.6183 24.3839 7.38388C24.6184 7.14946 24.7501 6.83152 24.7501 6.5C24.7501 6.16848 24.6184 5.85054 24.3839 5.61612C24.1495 5.3817 23.8316 5.25 23.5001 5.25Z" fill="#171717"/>
</svg>
