<svg width="20" height="20" viewBox="0 0 20 20" fill="none" xmlns="http://www.w3.org/2000/svg">
<path d="M16.6666 6.66536H12.5V11.6654H1.66665V14.1654H2.49998C2.49998 15.582 3.58331 16.6654 4.99998 16.6654C6.41665 16.6654 7.49998 15.582 7.49998 14.1654H12.5C12.5 15.582 13.5833 16.6654 15 16.6654C16.4166 16.6654 17.5 15.582 17.5 14.1654H19.1666V9.9987L16.6666 6.66536ZM4.99998 15.4154C4.33331 15.4154 3.74998 14.832 3.74998 14.1654C3.74998 13.4987 4.33331 12.9154 4.99998 12.9154C5.66665 12.9154 6.24998 13.4987 6.24998 14.1654C6.24998 14.832 5.66665 15.4154 4.99998 15.4154ZM15 15.4154C14.3333 15.4154 13.75 14.832 13.75 14.1654C13.75 13.4987 14.3333 12.9154 15 12.9154C15.6666 12.9154 16.25 13.4987 16.25 14.1654C16.25 14.832 15.6666 15.4154 15 15.4154ZM14.1666 9.9987V7.91536H16.25L17.9166 9.9987H14.1666ZM11.6666 7.91536C11.6666 9.4987 10.3333 10.832 8.74998 10.832H3.74998C2.16665 10.832 0.833313 9.4987 0.833313 7.91536C0.833313 6.33203 2.16665 4.9987 3.74998 4.9987H4.16665V4.16536H3.33331V3.33203H6.66665V4.16536H5.83331V4.9987H8.74998C10.3333 4.9987 11.6666 6.33203 11.6666 7.91536Z" fill="#222222"/>
</svg>
