<svg width="70" height="61" viewBox="0 0 70 61" fill="none" xmlns="http://www.w3.org/2000/svg">
<path d="M36.6374 15.7234L36.7296 15.7509L36.7337 15.7463C37.1713 15.8256 37.6055 15.5636 37.7341 15.1295C38.9057 11.1927 42.5968 8.44258 46.7092 8.44258C47.1961 8.44258 47.591 8.0477 47.591 7.56084C47.591 7.07396 47.1961 6.6791 46.7092 6.6791C41.6551 6.6791 37.4079 10.0442 36.0442 14.6269C35.905 15.0937 36.1709 15.5842 36.6374 15.7234Z" fill="#088586" stroke="#F9FFF9" stroke-width="0.3"/>
<path d="M56.9531 43.416H52.5628C52.1588 43.416 51.8311 43.0882 51.8311 42.6842C51.8311 42.2802 52.1588 41.9525 52.5628 41.9525H56.9531C63.005 41.9525 67.9291 37.0284 67.9291 30.9765C67.9291 24.9246 63.005 20.0006 56.9531 20.0006H56.8475C56.6354 20.0006 56.4336 19.9086 56.2946 19.7481C56.1555 19.5877 56.0928 19.3749 56.1231 19.1648C56.1885 18.7091 56.2214 18.2512 56.2214 17.8054C56.2214 12.5605 51.9538 8.29285 46.7089 8.29285C44.6684 8.29285 42.7225 8.9305 41.0812 10.1373C40.7206 10.4023 40.2084 10.2847 39.9999 9.888C35.3518 1.03724 23.2117 -0.15133 16.9176 7.54807C14.2662 10.7917 13.2244 15.0112 14.0592 19.1236C14.1512 19.5778 13.8036 20.0011 13.3421 20.0011H13.0489C6.99697 20.0011 2.07291 24.9252 2.07291 30.9771C2.07291 37.029 6.99697 41.953 13.0489 41.953H17.4392C17.8432 41.953 18.1709 42.2808 18.1709 42.6848C18.1709 43.0888 17.8432 43.4165 17.4392 43.4165H13.0489C6.18988 43.4165 0.609375 37.836 0.609375 30.977C0.609375 24.3105 5.88093 18.8517 12.4744 18.5507C11.8551 14.2841 13.0395 9.98049 15.7844 6.62191C22.5231 -1.62206 35.4374 -0.69802 40.8965 8.49461C42.6381 7.40276 44.6309 6.82998 46.7086 6.82998C53.0632 6.82998 58.0985 12.2385 57.6579 18.5575C64.1907 18.9239 69.3923 24.3538 69.3923 30.9765C69.3923 37.836 63.8118 43.416 56.9528 43.416L56.9531 43.416Z" fill="#088586"/>
<path d="M16.4594 42.271C16.4594 52.441 24.733 60.7145 34.9029 60.7145C45.0728 60.7145 53.3463 52.4408 53.3463 42.271C53.3463 32.1011 45.0728 23.8275 34.9029 23.8275C24.7329 23.8275 16.4594 32.1012 16.4594 42.271ZM18.2232 42.271C18.2232 33.0741 25.7058 25.5913 34.9029 25.5913C44.0998 25.5913 51.5825 33.074 51.5825 42.271C51.5825 51.4679 44.0998 58.9507 34.9029 58.9507C25.706 58.9507 18.2232 51.468 18.2232 42.271Z" fill="#088586" stroke="#F9FFF9" stroke-width="0.3"/>
<path d="M34.5521 49.6352C34.5521 50.0138 34.8592 50.3209 35.2379 50.3209C35.6164 50.3209 35.9236 50.0143 35.9236 49.6352V35.7066C35.9236 35.328 35.6165 35.0209 35.2379 35.0209C34.8592 35.0209 34.5521 35.328 34.5521 35.7066V49.6352Z" fill="#088586" stroke="#483EA8" stroke-width="0.3"/>
<path d="M35.2375 36.6777L31.4368 40.4784L35.2375 36.6777ZM35.2375 36.6777L39.0383 40.4784C39.172 40.6122 39.348 40.6793 39.5231 40.6793L35.2375 36.6777ZM30.4669 40.4784C30.7347 40.7462 31.1691 40.7464 31.4367 40.4784L39.5231 40.6793C39.698 40.6793 39.8741 40.6128 40.008 40.4784C40.2759 40.2105 40.2759 39.7765 40.008 39.5087L35.7223 35.223C35.4545 34.9552 35.0202 34.9551 34.7526 35.223C34.7525 35.2231 34.7525 35.2231 34.7525 35.2231L30.4669 39.5087C30.199 39.7766 30.199 40.2106 30.4669 40.4784Z" fill="#088586" stroke="#483EA8" stroke-width="0.3"/>
</svg>
