<svg width="20" height="18" viewBox="0 0 20 18" fill="none" xmlns="http://www.w3.org/2000/svg">
<path d="M18.3334 0.667969H1.66671C1.44569 0.667969 1.23373 0.755766 1.07745 0.912046C0.921171 1.06833 0.833374 1.28029 0.833374 1.5013V8.16797C0.833374 8.38898 0.921171 8.60094 1.07745 8.75722C1.23373 8.9135 1.44569 9.0013 1.66671 9.0013H4.16671V16.5013C4.16671 16.7223 4.2545 16.9343 4.41078 17.0906C4.56707 17.2468 4.77903 17.3346 5.00004 17.3346H15C15.2211 17.3346 15.433 17.2468 15.5893 17.0906C15.7456 16.9343 15.8334 16.7223 15.8334 16.5013V9.0013H18.3334C18.5544 9.0013 18.7663 8.9135 18.9226 8.75722C19.0789 8.60094 19.1667 8.38898 19.1667 8.16797V1.5013C19.1667 1.28029 19.0789 1.06833 18.9226 0.912046C18.7663 0.755766 18.5544 0.667969 18.3334 0.667969ZM5.83337 15.668V14.0013C6.2754 14.0013 6.69932 14.1769 7.01188 14.4895C7.32445 14.802 7.50004 15.2259 7.50004 15.668H5.83337ZM14.1667 15.668H12.5C12.5 15.2259 12.6756 14.802 12.9882 14.4895C13.3008 14.1769 13.7247 14.0013 14.1667 14.0013V15.668ZM14.1667 12.3346C13.2827 12.3346 12.4348 12.6858 11.8097 13.3109C11.1846 13.9361 10.8334 14.7839 10.8334 15.668H9.16671C9.16671 14.7839 8.81552 13.9361 8.1904 13.3109C7.56527 12.6858 6.71743 12.3346 5.83337 12.3346V5.66797H14.1667V12.3346ZM17.5 7.33464H15.8334V4.83464C15.8334 4.61362 15.7456 4.40166 15.5893 4.24538C15.433 4.0891 15.2211 4.0013 15 4.0013H5.00004C4.77903 4.0013 4.56707 4.0891 4.41078 4.24538C4.2545 4.40166 4.16671 4.61362 4.16671 4.83464V7.33464H2.50004V2.33464H17.5V7.33464ZM10 11.5013C10.4945 11.5013 10.9778 11.3547 11.389 11.08C11.8001 10.8053 12.1205 10.4148 12.3097 9.95801C12.499 9.50119 12.5485 8.99853 12.452 8.51358C12.3555 8.02862 12.1174 7.58317 11.7678 7.23353C11.4182 6.8839 10.9727 6.6458 10.4878 6.54934C10.0028 6.45288 9.50015 6.50238 9.04333 6.6916C8.58652 6.88082 8.19607 7.20125 7.92137 7.61238C7.64666 8.0235 7.50004 8.50685 7.50004 9.0013C7.50004 9.66434 7.76343 10.3002 8.23227 10.7691C8.70111 11.2379 9.337 11.5013 10 11.5013ZM10 8.16797C10.1649 8.16797 10.326 8.21684 10.463 8.30841C10.6001 8.39998 10.7069 8.53013 10.7699 8.6824C10.833 8.83467 10.8495 9.00223 10.8174 9.16388C10.7852 9.32553 10.7058 9.47401 10.5893 9.59056C10.4728 9.7071 10.3243 9.78647 10.1626 9.81862C10.001 9.85078 9.83341 9.83427 9.68114 9.7712C9.52886 9.70813 9.39872 9.60132 9.30715 9.46428C9.21558 9.32724 9.16671 9.16612 9.16671 9.0013C9.16671 8.78029 9.2545 8.56833 9.41078 8.41205C9.56706 8.25577 9.77903 8.16797 10 8.16797Z" fill="#808494"/>
</svg>
