<svg width="26" height="27" viewBox="0 0 26 27" fill="none" xmlns="http://www.w3.org/2000/svg">
<path d="M25.7461 7.85742C25.7461 7.85742 25.6699 7.52734 25.5176 6.86719C25.3652 6.20703 25.0944 5.68229 24.7051 5.29297C24.2142 4.76823 23.7191 4.45931 23.2197 4.36621C22.7204 4.27311 22.3438 4.20963 22.0898 4.17578C21.1927 4.10807 20.2109 4.05729 19.1445 4.02344C18.0781 3.98958 17.0921 3.96419 16.1865 3.94727C15.2809 3.93034 14.5234 3.92188 13.9141 3.92188C13.3047 3.92188 13 3.92188 13 3.92188C13 3.92188 12.6953 3.92188 12.0859 3.92188C11.4766 3.92188 10.7191 3.93034 9.81348 3.94727C8.90788 3.96419 7.92188 3.98958 6.85547 4.02344C5.78906 4.05729 4.80729 4.10807 3.91016 4.17578C3.65625 4.20963 3.27962 4.27311 2.78027 4.36621C2.28092 4.45931 1.78581 4.76823 1.29492 5.29297C0.905599 5.68229 0.634766 6.20703 0.482422 6.86719C0.330078 7.52734 0.253906 7.85742 0.253906 7.85742C0.253906 7.85742 0.211589 8.29753 0.126953 9.17773C0.0423177 10.0579 0 11.0228 0 12.0723V14.0527C0 15.1022 0.0423177 16.0628 0.126953 16.9346C0.211589 17.8063 0.253906 18.2422 0.253906 18.2422C0.253906 18.2422 0.330078 18.5765 0.482422 19.2451C0.634766 19.9137 0.905599 20.4427 1.29492 20.832C1.78581 21.3568 2.31478 21.6615 2.88184 21.7461C3.44889 21.8307 3.8763 21.8984 4.16406 21.9492C4.6888 22 5.44206 22.0423 6.42383 22.0762C7.4056 22.11 8.38314 22.1354 9.35645 22.1523C10.3298 22.1693 11.1803 22.1862 11.9082 22.2031C12.6361 22.2031 13 22.2031 13 22.2031C13 22.2031 13.3047 22.2031 13.9141 22.2031C14.5234 22.2031 15.2809 22.1904 16.1865 22.165C17.0921 22.1396 18.0781 22.11 19.1445 22.0762C20.2109 22.0423 21.2012 21.9915 22.1152 21.9238C22.3691 21.9069 22.7415 21.8519 23.2324 21.7588C23.7233 21.6657 24.2142 21.3568 24.7051 20.832C25.0944 20.4427 25.3652 19.9137 25.5176 19.2451C25.6699 18.5765 25.7461 18.2422 25.7461 18.2422C25.7461 18.2422 25.7884 17.8063 25.873 16.9346C25.9577 16.0628 26 15.1022 26 14.0527V12.0723C26 11.0228 25.9577 10.0579 25.873 9.17773C25.7884 8.29753 25.7461 7.85742 25.7461 7.85742ZM10.3086 16.4395V9.12695L17.3418 12.7832L10.3086 16.4395Z" fill="#B9B9B9"/>
</svg>
